<svg width="100" height="100" viewBox="0 0 100 100" fill="none" xmlns="http://www.w3.org/2000/svg">
<g id="maintenance">
<path id="Shape" fill-rule="evenodd" clip-rule="evenodd" d="M91.6667 6.66667H80V5C80 2.24333 77.7567 0 75 0C72.2433 0 70 2.24333 70 5V6.66667H30V5C30 2.24333 27.7567 0 25 0C22.2433 0 20 2.24333 20 5V6.66667H8.33333C3.73833 6.66667 0 10.405 0 15V91.6667C0 96.2617 3.73833 100 8.33333 100H91.6667C96.2617 100 100 96.2617 100 91.6667V15C100 10.405 96.2617 6.66667 91.6667 6.66667ZM73.3333 5C73.3333 4.08 74.08 3.33333 75 3.33333C75.92 3.33333 76.6667 4.08 76.6667 5V18.3333C76.6667 19.2533 75.92 20 75 20C74.08 20 73.3333 19.2533 73.3333 18.3333V5ZM75 23.3333C72.2717 23.3333 70.055 21.135 70.0083 18.4167C68.105 18.8 66.6667 20.485 66.6667 22.5C66.6667 24.7983 68.535 26.6667 70.8333 26.6667H79.1667C81.465 26.6667 83.3333 24.7983 83.3333 22.5C83.3333 20.485 81.895 18.8 79.9917 18.4167C79.945 21.135 77.7283 23.3333 75 23.3333ZM23.3333 5C23.3333 4.08 24.08 3.33333 25 3.33333C25.92 3.33333 26.6667 4.08 26.6667 5V18.3333C26.6667 19.2533 25.92 20 25 20C24.08 20 23.3333 19.2533 23.3333 18.3333V5ZM25 23.3333C22.2717 23.3333 20.055 21.135 20.0083 18.4167C18.105 18.8 16.6667 20.485 16.6667 22.5C16.6667 24.7983 18.535 26.6667 20.8333 26.6667H29.1667C31.465 26.6667 33.3333 24.7983 33.3333 22.5C33.3333 20.485 31.895 18.8 29.9917 18.4167C29.945 21.135 27.7283 23.3333 25 23.3333ZM96.6667 91.6667C96.6667 94.4233 94.4233 96.6667 91.6667 96.6667H8.33333C5.57667 96.6667 3.33333 94.4233 3.33333 91.6667V36.6667H96.6667V91.6667ZM3.33333 33.3333H96.6667V15C96.6667 12.2433 94.4233 10 91.6667 10H80V15.085C83.74 15.505 86.6667 18.65 86.6667 22.5C86.6667 26.635 83.3017 30 79.1667 30H70.8333C66.6983 30 63.3333 26.635 63.3333 22.5C63.3333 18.65 66.26 15.505 70 15.085V10H30V15.085C33.74 15.505 36.6667 18.65 36.6667 22.5C36.6667 26.635 33.3017 30 29.1667 30H20.8333C16.6983 30 13.3333 26.635 13.3333 22.5C13.3333 18.65 16.26 15.505 20 15.085V10H8.33333C5.57667 10 3.33333 12.2433 3.33333 15V33.3333Z" fill="#FECE0B"/>
<rect id="Rectangle-path" x="20" y="40" width="3.33333" height="3.33333" fill="white"/>
<rect id="Rectangle-path_2" x="13.334" y="40" width="3.33333" height="3.33333" fill="white"/>
<rect id="Rectangle-path_3" x="6.66602" y="40" width="3.33333" height="3.33333" fill="white"/>
<path id="Shape_2" fill-rule="evenodd" clip-rule="evenodd" d="M90.274 78.3568L80.274 76.6902C79.7473 76.6052 79.2023 76.7752 78.8223 77.1552L77.644 78.3335H55.0007V75.0002C55.0007 74.0785 54.2556 73.3335 53.334 73.3335H46.459C45.999 73.3335 45.559 73.5235 45.244 73.8602L43.2623 75.9752L40.9356 73.7868C40.6256 73.4968 40.2173 73.3335 39.7923 73.3335H10.0007C9.07898 73.3335 8.33398 74.0785 8.33398 75.0002V91.6668C8.33398 92.5885 9.07898 93.3335 10.0007 93.3335H40.0007C40.444 93.3335 40.8673 93.1585 41.179 92.8452L43.334 90.6902L45.489 92.8452C45.8007 93.1585 46.224 93.3335 46.6673 93.3335H53.334C54.2556 93.3335 55.0007 92.5885 55.0007 91.6668V88.3335H77.644L78.8223 89.5118C79.1373 89.8268 79.5623 90.0002 80.0006 90.0002C80.0923 90.0002 80.1823 89.9918 80.274 89.9768L90.274 88.3102C91.0773 88.1768 91.6673 87.4818 91.6673 86.6668V80.0002C91.6673 79.1852 91.0773 78.4902 90.274 78.3568ZM51.6673 80.0002V86.6668V90.0002H47.3573L44.5123 87.1552C43.8607 86.5035 42.8073 86.5035 42.1557 87.1552L39.3107 90.0002H11.6673V76.6668H39.1323L42.1923 79.5485C42.514 79.8518 42.9557 80.0368 43.3873 80.0002C43.8307 79.9868 44.249 79.7985 44.5507 79.4752L47.1823 76.6668H51.6673V80.0002ZM80.5723 86.5468L88.334 85.2552V81.4118L80.5723 80.1185L79.5123 81.1785C79.2007 81.4918 78.7773 81.6668 78.334 81.6668H55.0007V85.0002H78.334C78.7773 85.0002 79.2007 85.1752 79.5123 85.4868L80.5723 86.5468Z" fill="#FECE0B"/>
<path id="Shape_3" fill-rule="evenodd" clip-rule="evenodd" d="M77.4994 61.6667H88.3327C88.9743 61.6667 89.556 62.035 89.8344 62.61C90.111 63.1883 90.0343 63.8733 89.6343 64.375L82.9677 72.7083C82.651 73.1033 82.1727 73.3333 81.666 73.3333H71.666C71.2227 73.3333 70.7993 73.1583 70.4877 72.845L60.976 63.3333H13.3327C9.65602 63.3333 6.66602 60.3433 6.66602 56.6667C6.66602 52.99 9.65602 50 13.3327 50H60.976L70.4877 40.4883C70.7993 40.175 71.2227 40 71.666 40H81.666C82.1727 40 82.651 40.23 82.9677 40.625L89.6343 48.9583C90.0343 49.46 90.111 50.145 89.8344 50.7233C89.556 51.2983 88.9743 51.6667 88.3327 51.6667H77.4994L73.7494 56.6667L77.4994 61.6667ZM72.3577 69.9983H80.866L84.8643 64.9983H76.666C76.141 64.9983 75.646 64.7517 75.3327 64.3317L70.3327 57.665C69.8877 57.0733 69.8877 56.2583 70.3327 55.6667L75.3327 49C75.6477 48.58 76.1427 48.3333 76.666 48.3333H84.8627L80.8643 43.3333H72.356L62.8443 52.845C62.5327 53.1583 62.1093 53.3333 61.666 53.3333H13.3327C11.4943 53.3333 9.99935 54.8283 9.99935 56.6667C9.99935 58.505 11.4943 60 13.3327 60H61.666C62.1093 60 62.5327 60.175 62.846 60.4867L72.3577 69.9983Z" fill="white"/>
<rect id="Rectangle-path_4" x="15" y="80" width="11.6667" height="3.33333" fill="white"/>
<rect id="Rectangle-path_5" x="30" y="80" width="3.33333" height="3.33333" fill="white"/>
</g>
</svg>
