<svg width="100" height="100" viewBox="0 0 100 100" fill="none" xmlns="http://www.w3.org/2000/svg">
<g id="purchasing">
<path id="Shape" fill-rule="evenodd" clip-rule="evenodd" d="M66.5842 82.2518H77.3858V79.0324H100V100H77.3858V97.1228L71.0939 98.3808L49.6503 98.3486L33.1245 94.9873L25.1632 91.0582C22.91 89.9469 21.9584 87.284 22.9939 84.9969C23.5245 83.826 24.5262 82.9228 25.7455 82.5147C26.9616 82.1082 28.3052 82.2292 29.431 82.8421L32.9697 84.776L32.4826 83.3292C32.0229 81.9631 32.2503 80.4502 33.0907 79.2792C33.931 78.1098 35.2923 77.4115 36.7326 77.4115C38.5778 77.4115 40.2116 78.5163 40.8971 80.2292L42.9826 85.4486L48.06 85.4324L44.5697 83.5776C42.4713 82.4663 41.4487 80.0066 42.1391 77.7324C42.5358 76.4211 43.4294 75.355 44.6536 74.734C45.8745 74.1131 47.2649 74.0211 48.5584 74.476L62.152 79.2969L66.5842 82.2518ZM37.9003 81.4292C37.5568 80.5695 36.2536 80.4066 35.71 81.1631C35.4697 81.4969 35.4068 81.9115 35.5374 82.3002L36.6052 85.4695L39.5116 85.4599L37.9003 81.4292ZM80.6116 82.2582H83.8713V93.5486H87.0971V82.2582H96.7745V96.7744H80.6116V82.2582ZM70.7745 95.155L77.3874 93.8324V85.4776H65.6084L60.5326 82.0937L47.4923 77.5179C47.0342 77.3598 46.5455 77.3905 46.1149 77.6098C45.6826 77.8276 45.3681 78.205 45.2278 78.6679C44.9826 79.4695 45.3439 80.3357 46.0826 80.7276L55.0987 85.5211L48.7358 88.7034H33.4262L27.8858 85.676C27.5423 85.4857 27.1423 85.4486 26.7697 85.576C26.3939 85.7002 26.0971 85.9679 25.9342 86.3292C25.6181 87.0228 25.9084 87.8308 26.5907 88.1679L34.3616 92.0018L50.1245 95.155H70.7745Z" fill="white"/>
<path id="Shape_2" fill-rule="evenodd" clip-rule="evenodd" d="M11.2903 51.7581V45.1613H33.871V51.7581C29.3016 52.529 25.8065 56.5032 25.8065 61.2903C25.8065 66.6274 30.1468 70.9677 35.4839 70.9677C40.821 70.9677 45.1613 66.6274 45.1613 61.2903C45.1613 56.5048 41.6661 52.5306 37.0968 51.7581V45.1613H62.9032V51.7581C58.3339 52.529 54.8387 56.5032 54.8387 61.2903C54.8387 66.6274 59.179 70.9677 64.5161 70.9677C69.8532 70.9677 74.1936 66.6274 74.1936 61.2903C74.1936 56.5048 70.6984 52.5306 66.129 51.7581V45.1613H88.7097V51.7581C84.1403 52.529 80.6452 56.5032 80.6452 61.2903C80.6452 66.6274 84.9855 70.9677 90.3226 70.9677C95.6597 70.9677 100 66.6274 100 61.2903C100 56.5048 96.5048 52.5306 91.9355 51.7581V41.9355H79.0323V16.129H64.5161V19.3548H75.8064V41.9355H51.6129V32.2581H53.2258C57.6726 32.2581 61.2903 28.6403 61.2903 24.1935C61.2903 19.7468 57.6726 16.129 53.2258 16.129H46.7742C44.1064 16.129 41.9355 13.9581 41.9355 11.2903C41.9355 8.62258 44.1064 6.45161 46.7742 6.45161H53.2258C55.8936 6.45161 58.0645 8.62258 58.0645 11.2903H61.2903C61.2903 6.84355 57.6726 3.22581 53.2258 3.22581H51.6129V0H48.3871V3.22581H46.7742C42.3274 3.22581 38.7097 6.84355 38.7097 11.2903C38.7097 15.7371 42.3274 19.3548 46.7742 19.3548H53.2258C55.8936 19.3548 58.0645 21.5258 58.0645 24.1935C58.0645 26.8613 55.8936 29.0323 53.2258 29.0323H46.7742C44.1064 29.0323 41.9355 26.8613 41.9355 24.1935H38.7097C38.7097 28.6403 42.3274 32.2581 46.7742 32.2581H48.3871V41.9355H24.1935V19.3548H35.4839V16.129H20.9677V41.9355H8.06452V51.7581C3.49516 52.5306 0 56.5048 0 61.2903C0 66.6274 4.34032 70.9677 9.67742 70.9677C15.0145 70.9677 19.3548 66.6274 19.3548 61.2903C19.3548 56.5048 15.8597 52.5306 11.2903 51.7581ZM96.7742 61.2903C96.7742 64.8484 93.8806 67.7419 90.3226 67.7419C86.7645 67.7419 83.871 64.8484 83.871 61.2903C83.871 57.7323 86.7645 54.8387 90.3226 54.8387C93.8806 54.8387 96.7742 57.7323 96.7742 61.2903ZM64.5161 67.7419C68.0742 67.7419 70.9677 64.8484 70.9677 61.2903C70.9677 57.7323 68.0742 54.8387 64.5161 54.8387C60.9581 54.8387 58.0645 57.7323 58.0645 61.2903C58.0645 64.8484 60.9581 67.7419 64.5161 67.7419ZM41.9355 61.2903C41.9355 64.8484 39.0419 67.7419 35.4839 67.7419C31.9258 67.7419 29.0323 64.8484 29.0323 61.2903C29.0323 57.7323 31.9258 54.8387 35.4839 54.8387C39.0419 54.8387 41.9355 57.7323 41.9355 61.2903ZM3.22581 61.2903C3.22581 64.8484 6.11936 67.7419 9.67742 67.7419C13.2355 67.7419 16.129 64.8484 16.129 61.2903C16.129 57.7323 13.2355 54.8387 9.67742 54.8387C6.11936 54.8387 3.22581 57.7323 3.22581 61.2903Z" fill="#FECE0B"/>
<rect id="Rectangle-path" x="8.06445" y="59.6772" width="3.22581" height="3.22581" fill="white"/>
<rect id="Rectangle-path_2" x="33.8711" y="59.6772" width="3.22581" height="3.22581" fill="white"/>
<rect id="Rectangle-path_3" x="62.9023" y="59.6772" width="3.22581" height="3.22581" fill="white"/>
<rect id="Rectangle-path_4" x="88.709" y="59.6772" width="3.22581" height="3.22581" fill="white"/>
</g>
</svg>
