<svg width="100" height="100" viewBox="0 0 100 100" fill="none" xmlns="http://www.w3.org/2000/svg">
<g id="warehouse (1)">
<path id="Shape" d="M93.4836 96.7717V18.4055L49.9994 0L6.51513 18.4055V96.7717H0.078125V100H9.72379V20.5315L49.9994 3.50394L90.275 20.5315V100H99.9206V96.7717H93.4836Z" fill="#ACB7FF"/>
<path id="Shape_2" d="M14.5664 33.9565V99.9998H17.7948V37.1849H82.2042V99.9998H85.4325V33.9565H14.5664Z" fill="#ACB7FF"/>
<path id="Shape_3" fill-rule="evenodd" clip-rule="evenodd" d="M22.6172 77.4409V100H48.3849V77.4409H22.6172ZM33.877 80.6693H37.1054V83.8976H33.877V80.6693ZM25.8455 96.7716H45.1762V80.6693H40.3337V87.1063H30.6684V80.6693H25.8455V96.7716Z" fill="white"/>
<path id="Shape_4" fill-rule="evenodd" clip-rule="evenodd" d="M51.6133 77.4409V100H77.381V77.4409H51.6133ZM62.8731 80.6693H66.1015V83.8976H62.8731V80.6693ZM54.8219 96.7716H74.1527V80.6693H69.3101V87.1063H59.6448V80.6693H54.8219V96.7716Z" fill="white"/>
<path id="Shape_5" fill-rule="evenodd" clip-rule="evenodd" d="M37.1055 74.2324H62.8732V51.6733H37.1055V74.2324ZM48.385 54.9017H51.6133V58.13H48.385V54.9017ZM45.1566 54.9017H40.3338V71.004H59.6448V54.9017H54.822V61.3387H45.1566V54.9017Z" fill="white"/>
<path id="Rectangle-path" d="M48.3867 19.4683H51.6151V22.6966H48.3867V19.4683Z" fill="white"/>
<path id="Rectangle-path_2" d="M54.8223 19.4683H58.0506V22.6966H54.8223V19.4683Z" fill="white"/>
<path id="Rectangle-path_3" d="M41.9492 19.4683H45.1776V22.6966H41.9492V19.4683Z" fill="white"/>
</g>
</svg>
